<svg width="312" height="223" viewBox="0 0 312 223" fill="none" xmlns="http://www.w3.org/2000/svg">
<g filter="url(#filter0_d)">
<rect x="20" y="16.8152" width="272" height="182" rx="5" fill="white"/>
</g>
<path d="M52 42.8152C52 40.0538 54.2386 37.8152 57 37.8152H120.059V82.4306H52V42.8152Z" fill="#1CBFEA"/>
<path d="M122.353 37.8152H189.647V82.4306H122.353V37.8152Z" fill="#1CBFEA"/>
<path d="M260 42.8152C260 40.0538 257.761 37.8152 255 37.8152H191.941V82.4306H260V42.8152Z" fill="#1CBFEA"/>
<path d="M52 85.5076H120.059V130.123H52V85.5076Z" fill="#1CBFEA"/>
<path d="M122.353 85.5076H189.647V130.123H122.353V85.5076Z" fill="#1CBFEA"/>
<path d="M260 85.5076H191.941V130.123H260V85.5076Z" fill="#1CBFEA"/>
<path d="M260 172.815C260 175.577 257.761 177.815 255 177.815L191.941 177.815L191.941 133.2L260 133.2L260 172.815Z" fill="#1CBFEA"/>
<path d="M189.647 177.815L122.353 177.815L122.353 133.2L189.647 133.2L189.647 177.815Z" fill="#1CBFEA"/>
<path d="M52 172.815C52 175.577 54.2386 177.815 57 177.815L120.059 177.815L120.059 133.2L52 133.2L52 172.815Z" fill="#1CBFEA"/>
<defs>
<filter id="filter0_d" x="0" y="0.815247" width="312" height="222" filterUnits="userSpaceOnUse" color-interpolation-filters="sRGB">
<feFlood flood-opacity="0" result="BackgroundImageFix"/>
<feColorMatrix in="SourceAlpha" type="matrix" values="0 0 0 0 0 0 0 0 0 0 0 0 0 0 0 0 0 0 127 0"/>
<feOffset dy="4"/>
<feGaussianBlur stdDeviation="10"/>
<feColorMatrix type="matrix" values="0 0 0 0 0 0 0 0 0 0 0 0 0 0 0 0 0 0 0.15 0"/>
<feBlend mode="normal" in2="BackgroundImageFix" result="effect1_dropShadow"/>
<feBlend mode="normal" in="SourceGraphic" in2="effect1_dropShadow" result="shape"/>
</filter>
</defs>
</svg>
