<svg width="312" height="226" viewBox="0 0 312 226" fill="none" xmlns="http://www.w3.org/2000/svg">
<g filter="url(#filter0_d)">
<rect x="20" y="19.8152" width="272" height="182" rx="5" fill="white"/>
</g>
<path d="M260 45.8152C260 43.0538 257.761 40.8152 255 40.8152H57C54.2386 40.8152 52 43.0538 52 45.8152V175.815C52 178.577 54.2386 180.815 57 180.815H255C257.761 180.815 260 178.577 260 175.815V45.8152Z" fill="#1CBFEA"/>
<circle cx="156" cy="169.815" r="3" fill="white"/>
<circle cx="166" cy="169.815" r="3" fill="white"/>
<circle cx="146" cy="169.815" r="3" fill="white"/>
<path d="M59 110.315L64.25 105.552L64.25 115.078L59 110.315Z" fill="white"/>
<path d="M254 110.315L248.75 115.078L248.75 105.552L254 110.315Z" fill="white"/>
<path d="M20.0393 67.8153L74.5393 19.8153L113.539 19.8153L20.0393 105.315L20.0393 67.8153Z" fill="#FF5983"/>
<path d="M36.3624 82.4164L28.5763 73.6204L29.4419 72.8542L30.162 73.4882L30.2002 73.4543C30.2699 72.9688 30.3951 72.4947 30.5758 72.0321C30.765 71.5619 31.0421 71.1653 31.407 70.8422C31.8058 70.4892 32.2256 70.2538 32.6664 70.1361C33.0996 70.01 33.5419 69.9968 33.9935 70.0965C34.4376 70.1878 34.8833 70.3836 35.3307 70.6838C35.779 70.968 36.2173 71.352 36.6455 71.8357C37.1112 72.3618 37.456 72.8967 37.6798 73.4402C37.8961 73.9752 38.0089 74.4959 38.0182 75.0023C38.0275 75.5087 37.9385 75.981 37.7513 76.4192C37.5565 76.8489 37.2809 77.2215 36.9245 77.537C36.6359 77.7924 36.2911 77.9842 35.8899 78.1123C35.4971 78.2329 35.0589 78.3106 34.575 78.3453L35.5582 79.4048L37.4062 81.4924L36.3624 82.4164ZM35.9688 76.8164C36.2234 76.5911 36.4079 76.3293 36.5224 76.0312C36.6379 75.7171 36.6819 75.3906 36.6543 75.0517C36.6278 74.6968 36.5217 74.3291 36.3361 73.9485C36.1591 73.5603 35.9015 73.1753 35.5635 72.7935C35.263 72.454 34.9591 72.1705 34.6518 71.9431C34.3445 71.7156 34.0366 71.5644 33.728 71.4894C33.4205 71.3984 33.1118 71.3917 32.8019 71.4691C32.5006 71.5391 32.2057 71.7018 31.9172 71.9572C31.6541 72.1901 31.4506 72.4988 31.3068 72.8835C31.1714 73.2606 31.0712 73.7202 31.006 74.2621L33.8793 77.5081C34.3697 77.4978 34.7915 77.4272 35.1447 77.2962C35.4904 77.1566 35.7651 76.9967 35.9688 76.8164Z" fill="white"/>
<path d="M41.1132 73.5567L35.6371 67.3703L36.5027 66.6041L37.5833 67.6454L37.6215 67.6116C37.4881 67.0334 37.4685 66.4983 37.5627 66.0062C37.6654 65.5067 37.895 65.0992 38.2514 64.7837C38.4975 64.5658 38.7557 64.4129 39.026 64.325L39.6336 65.4218C39.5017 65.478 39.3858 65.5352 39.286 65.5933C39.1861 65.6515 39.0725 65.7369 38.9452 65.8496C38.6821 66.0824 38.5002 66.4327 38.3995 66.9002C38.3072 67.3603 38.3879 67.9473 38.6415 68.6612L42.1571 72.6328L41.1132 73.5567Z" fill="white"/>
<path d="M47.943 67.7835C47.5611 68.1216 47.1324 68.3725 46.6567 68.5362C46.1896 68.6924 45.7043 68.7512 45.2008 68.7125C44.6898 68.6653 44.1772 68.5136 43.6629 68.2575C43.1496 67.9854 42.6676 67.5947 42.2169 67.0856C41.7586 66.5679 41.4294 66.042 41.2291 65.508C41.0297 64.9579 40.9377 64.4264 40.9528 63.9135C40.968 63.4006 41.0815 62.9218 41.2932 62.477C41.5135 62.0248 41.8145 61.6296 42.1964 61.2916C42.5783 60.9536 43.0028 60.7064 43.4699 60.5502C43.9456 60.3865 44.4389 60.3282 44.9498 60.3754C45.4608 60.4226 45.973 60.5822 46.4863 60.8544C47.0006 61.1105 47.4868 61.4974 47.9451 62.015C48.3958 62.5242 48.7208 63.0538 48.9201 63.6039C49.1204 64.138 49.213 64.6614 49.1978 65.1744C49.1751 65.6788 49.0537 66.1571 48.8334 66.6094C48.6217 67.0541 48.3249 67.4455 47.943 67.7835ZM47.1768 66.918C47.4399 66.6851 47.6329 66.4158 47.7559 66.1102C47.8713 65.7961 47.9153 65.4696 47.8878 65.1307C47.8612 64.7758 47.7627 64.4166 47.5921 64.0529C47.4216 63.6893 47.1786 63.3292 46.8631 62.9728C46.5476 62.6164 46.2197 62.3315 45.8794 62.1181C45.5316 61.8962 45.1832 61.7505 44.8342 61.6811C44.4936 61.6041 44.1642 61.6081 43.8459 61.6931C43.5201 61.7696 43.2257 61.9243 42.9626 62.1572C42.6995 62.3901 42.5103 62.6636 42.3948 62.9777C42.2718 63.2833 42.2236 63.6136 42.2501 63.9684C42.2852 64.3158 42.3917 64.6756 42.5698 65.0477C42.7403 65.4113 42.9834 65.7714 43.2989 66.1278C43.6144 66.4842 43.9422 66.7691 44.2825 66.9826C44.6228 67.196 44.9632 67.3411 45.3037 67.4181C45.6453 67.479 45.9789 67.4712 46.3047 67.3947C46.623 67.3098 46.9137 67.1508 47.1768 66.918Z" fill="white"/>
<path d="M55.0277 61.2398L50.3065 55.9062L49.4663 56.6499L48.7677 55.8607L49.5515 55.0534L48.6839 54.0732C48.1205 53.4367 47.8216 52.8084 47.7871 52.188C47.7611 51.5602 48.0578 50.9721 48.6773 50.4238C48.8725 50.251 49.0738 50.1107 49.281 50.0029C49.4893 49.8791 49.6918 49.783 49.8887 49.7147L50.3694 50.7195C50.0502 50.8205 49.7717 50.9761 49.5341 51.1865C48.9571 51.6973 49.0216 52.3515 49.7277 53.1492L50.5953 54.1294L51.9064 52.9688L52.6614 53.8217L51.3503 54.9823L56.0715 60.3159L55.0277 61.2398Z" fill="white"/>
<path d="M61.0849 56.1505C60.6691 56.5185 60.2149 56.792 59.7223 56.9707C59.2306 57.1335 58.7289 57.1992 58.2169 57.1681C57.7059 57.1209 57.1976 56.9655 56.6917 56.7018C56.1859 56.4382 55.7077 56.0518 55.257 55.5426C54.8062 55.0335 54.4807 54.5118 54.2804 53.9778C54.0811 53.4277 53.9848 52.9 53.9915 52.3946C54.0066 51.8817 54.1159 51.4066 54.3191 50.9694C54.5149 50.5236 54.791 50.143 55.1474 49.8275C55.5378 49.482 55.9458 49.2419 56.3715 49.1072C56.8057 48.9651 57.2373 48.9311 57.6663 49.0054C58.1038 49.0722 58.5355 49.235 58.9613 49.4938C59.3871 49.7525 59.7953 50.1026 60.1859 50.5439C60.2836 50.6542 60.377 50.7683 60.4662 50.8861C60.5563 50.9879 60.6267 51.0845 60.6773 51.1759L56.5021 54.8718C57.1305 55.4962 57.7999 55.842 58.5103 55.9094C59.2218 55.9607 59.8745 55.7235 60.4685 55.1977C60.7656 54.9347 60.9996 54.6519 61.1705 54.3492C61.3425 54.0305 61.4792 53.6976 61.5806 53.3505L62.5582 53.7111C62.4369 54.1213 62.2671 54.5364 62.0488 54.9567C61.8305 55.3769 61.5092 55.7749 61.0849 56.1505ZM55.8246 54.132L59.1342 51.2024C58.5783 50.5744 58.0219 50.2194 57.4649 50.1373C56.9088 50.0392 56.389 50.2042 55.9053 50.6324C55.6846 50.8277 55.51 51.0579 55.3815 51.3231C55.2614 51.5807 55.1959 51.8658 55.1849 52.1782C55.1664 52.4822 55.2071 52.8018 55.3071 53.1371C55.4156 53.4648 55.5881 53.7965 55.8246 54.132Z" fill="white"/>
<path d="M66.1438 51.6724C65.6262 52.1306 65.0582 52.361 64.4398 52.3634C63.8299 52.3584 63.2771 52.0759 62.7813 51.5158C62.1804 50.8369 62.0234 50.0525 62.3104 49.1628C62.5899 48.2645 63.3278 47.1573 64.5239 45.8412C64.3511 45.646 64.1609 45.4739 63.9532 45.3247C63.754 45.1681 63.5439 45.0589 63.3228 44.9973C63.1018 44.9357 62.8688 44.9375 62.624 45.0029C62.3801 45.0523 62.1309 45.1897 61.8763 45.415C61.5199 45.7305 61.2448 46.0951 61.051 46.5088C60.8572 46.9226 60.7123 47.3232 60.6165 47.7108L59.5669 47.3458C59.6901 46.9037 59.8846 46.4137 60.1501 45.8759C60.4082 45.3296 60.7876 44.8349 61.2883 44.3917C62.0436 43.7231 62.7975 43.472 63.5501 43.6382C64.2952 43.796 65.0095 44.261 65.6931 45.0333L69.0509 48.8266L68.1853 49.5928L67.4427 48.9334L67.4045 48.9672C67.3253 49.4762 67.1949 49.9701 67.0132 50.4488C66.824 50.919 66.5342 51.3268 66.1438 51.6724ZM65.7057 50.5618C66.0027 50.2989 66.2226 49.9831 66.3655 49.6145C66.5009 49.2373 66.5969 48.7815 66.6535 48.2471L65.1324 46.5286C64.6748 47.0547 64.3091 47.5222 64.0353 47.931C63.77 48.3324 63.5834 48.6943 63.4754 49.0169C63.376 49.332 63.3504 49.6195 63.3988 49.8794C63.4482 50.1233 63.5593 50.3428 63.7321 50.538C64.0476 50.8944 64.379 51.0551 64.7264 51.02C65.0737 50.985 65.4002 50.8322 65.7057 50.5618Z" fill="white"/>
<path d="M72.9061 45.6865C72.5751 45.9795 72.25 46.1765 71.9307 46.2774C71.62 46.3709 71.3136 46.3924 71.0115 46.3419C70.718 46.2839 70.4289 46.1539 70.1441 45.9519C69.8593 45.7498 69.5818 45.4961 69.3113 45.1906L66.2803 41.7664L65.3638 42.5777L64.6652 41.7885L65.5762 40.8685L64.1711 39.0246L65.0494 38.2471L66.5819 39.9783L68.2494 38.5022L69.0043 39.3551L67.3368 40.8312L70.3791 44.2681C70.7172 44.65 71.048 44.8869 71.3715 44.9789C71.6961 45.0548 72.0366 44.9351 72.393 44.6196C72.5033 44.5219 72.6071 44.3998 72.7044 44.2531C72.8016 44.1065 72.8824 43.9669 72.9466 43.8343L73.8489 44.4433C73.7318 44.6529 73.5901 44.8691 73.424 45.0918C73.2739 45.3155 73.1013 45.5137 72.9061 45.6865Z" fill="white"/>
<path d="M77.0672 42.0032C76.4053 42.5891 75.7413 42.8136 75.0752 42.6767C74.4176 42.5323 73.7357 42.0612 73.0296 41.2635L69.5591 37.3429L70.6157 36.4076L73.9622 40.1882C74.4805 40.7738 74.9452 41.1192 75.3563 41.2246C75.7684 41.3139 76.1781 41.1783 76.5854 40.8177C76.9079 40.5322 77.1208 40.2 77.2242 39.8209C77.32 39.4333 77.355 38.9256 77.329 38.2978L73.4416 33.9062L74.4854 32.9822L79.9616 39.1687L79.096 39.9349L78.1505 39.0463L78.1123 39.0801C78.1243 39.675 78.0591 40.217 77.9169 40.7061C77.7832 41.1877 77.5 41.6201 77.0672 42.0032Z" fill="white"/>
<path d="M82.0485 37.3214L76.5723 31.1349L77.4379 30.3687L78.5186 31.41L78.5568 31.3762C78.4234 30.798 78.4038 30.2629 78.498 29.7709C78.6006 29.2713 78.8302 28.8638 79.1866 28.5483C79.4327 28.3304 79.6909 28.1776 79.9612 28.0897L80.5688 29.1865C80.4369 29.2427 80.3211 29.2998 80.2212 29.358C80.1213 29.4161 80.0077 29.5015 79.8804 29.6142C79.6173 29.8471 79.4354 30.1973 79.3347 30.6648C79.2425 31.1249 79.3231 31.7119 79.5767 32.4258L83.0923 36.3974L82.0485 37.3214Z" fill="white"/>
<path d="M88.98 31.458C88.5642 31.8261 88.11 32.0995 87.6174 32.2783C87.1258 32.441 86.624 32.5068 86.112 32.4756C85.6011 32.4285 85.0927 32.2731 84.5869 32.0094C84.0811 31.7458 83.6028 31.3594 83.1521 30.8502C82.7014 30.341 82.3759 29.8194 82.1755 29.2853C81.9762 28.7353 81.8799 28.2075 81.8866 27.7021C81.9018 27.1892 82.011 26.7142 82.2142 26.2769C82.41 25.8312 82.6861 25.4506 83.0425 25.1351C83.4329 24.7896 83.8409 24.5495 84.2666 24.4148C84.7008 24.2726 85.1324 24.2387 85.5614 24.313C85.9989 24.3798 86.4306 24.5426 86.8564 24.8014C87.2822 25.0601 87.6904 25.4101 88.0811 25.8514C88.1787 25.9617 88.2721 26.0758 88.3613 26.1937C88.4514 26.2955 88.5218 26.3921 88.5725 26.4835L84.3972 30.1794C85.0256 30.8037 85.695 31.1496 86.4055 31.2169C87.1169 31.2683 87.7696 31.0311 88.3637 30.5052C88.6607 30.2423 88.8947 29.9595 89.0657 29.6568C89.2376 29.3381 89.3743 29.0052 89.4757 28.6581L90.4533 29.0187C90.332 29.4288 90.1622 29.844 89.9439 30.2643C89.7256 30.6845 89.4044 31.0824 88.98 31.458ZM83.7197 29.4396L87.0293 26.51C86.4735 25.882 85.917 25.5269 85.36 25.4448C84.804 25.3468 84.2841 25.5118 83.8004 25.94C83.5797 26.1353 83.4051 26.3655 83.2766 26.6307C83.1565 26.8883 83.091 27.1733 83.08 27.4858C83.0615 27.7898 83.1022 28.1094 83.2022 28.4446C83.3107 28.7724 83.4832 29.104 83.7197 29.4396Z" fill="white"/>
<defs>
<filter id="filter0_d" x="0" y="3.81525" width="312" height="222" filterUnits="userSpaceOnUse" color-interpolation-filters="sRGB">
<feFlood flood-opacity="0" result="BackgroundImageFix"/>
<feColorMatrix in="SourceAlpha" type="matrix" values="0 0 0 0 0 0 0 0 0 0 0 0 0 0 0 0 0 0 127 0"/>
<feOffset dy="4"/>
<feGaussianBlur stdDeviation="10"/>
<feColorMatrix type="matrix" values="0 0 0 0 0 0 0 0 0 0 0 0 0 0 0 0 0 0 0.15 0"/>
<feBlend mode="normal" in2="BackgroundImageFix" result="effect1_dropShadow"/>
<feBlend mode="normal" in="SourceGraphic" in2="effect1_dropShadow" result="shape"/>
</filter>
</defs>
</svg>
