<svg width="312" height="223" viewBox="0 0 312 223" fill="none" xmlns="http://www.w3.org/2000/svg">
<g filter="url(#filter0_d)">
<rect x="20" y="16.8152" width="272" height="182" rx="5" fill="white"/>
</g>
<path d="M260 42.8152C260 40.0538 257.761 37.8152 255 37.8152H57C54.2386 37.8152 52 40.0538 52 42.8152V172.815C52 175.577 54.2386 177.815 57 177.815H255C257.761 177.815 260 175.577 260 172.815V42.8152Z" fill="#1CBFEA"/>
<circle cx="156" cy="166.815" r="3" fill="white"/>
<circle cx="166" cy="166.815" r="3" fill="white"/>
<circle cx="146" cy="166.815" r="3" fill="white"/>
<path d="M59 107.315L64.25 102.552L64.25 112.078L59 107.315Z" fill="white"/>
<path d="M254 107.315L248.75 112.078L248.75 102.552L254 107.315Z" fill="white"/>
<defs>
<filter id="filter0_d" x="0" y="0.815247" width="312" height="222" filterUnits="userSpaceOnUse" color-interpolation-filters="sRGB">
<feFlood flood-opacity="0" result="BackgroundImageFix"/>
<feColorMatrix in="SourceAlpha" type="matrix" values="0 0 0 0 0 0 0 0 0 0 0 0 0 0 0 0 0 0 127 0"/>
<feOffset dy="4"/>
<feGaussianBlur stdDeviation="10"/>
<feColorMatrix type="matrix" values="0 0 0 0 0 0 0 0 0 0 0 0 0 0 0 0 0 0 0.15 0"/>
<feBlend mode="normal" in2="BackgroundImageFix" result="effect1_dropShadow"/>
<feBlend mode="normal" in="SourceGraphic" in2="effect1_dropShadow" result="shape"/>
</filter>
</defs>
</svg>
