<svg width="312" height="226" viewBox="0 0 312 226" fill="none" xmlns="http://www.w3.org/2000/svg">
<g filter="url(#filter0_d)">
<rect x="20" y="19.8152" width="272" height="182" rx="5" fill="white"/>
</g>
<path d="M52 46C52 43.2386 54.2386 41 57 41H120V86H52V46Z" fill="#1CBFEA"/>
<path d="M260 46C260 43.2386 257.761 41 255 41H122V133H260V46Z" fill="#1CBFEA"/>
<path d="M52 88H120V181H57C54.2386 181 52 178.761 52 176V88Z" fill="#1CBFEA"/>
<path d="M260 176C260 178.761 257.761 181 255 181L192 181L192 135L260 135L260 176Z" fill="#1CBFEA"/>
<path d="M190 181L122 181L122 135L190 135L190 181Z" fill="#1CBFEA"/>
<path d="M19.9998 67.8153L74.4998 19.8153L113.5 19.8153L19.9998 105.315L19.9998 67.8153Z" fill="#FF5983"/>
<path d="M36.3228 82.4164L28.5367 73.6204L29.4023 72.8542L30.1224 73.4882L30.1606 73.4543C30.2303 72.9688 30.3555 72.4947 30.5363 72.0321C30.7255 71.5619 31.0025 71.1653 31.3674 70.8422C31.7663 70.4892 32.1861 70.2538 32.6268 70.1361C33.06 70.01 33.5024 69.9968 33.954 70.0965C34.398 70.1878 34.8437 70.3836 35.2911 70.6838C35.7395 70.968 36.1777 71.352 36.6059 71.8357C37.0716 72.3618 37.4164 72.8967 37.6402 73.4402C37.8565 73.9752 37.9693 74.4959 37.9786 75.0023C37.988 75.5087 37.899 75.981 37.7117 76.4192C37.5169 76.8489 37.2413 77.2215 36.8849 77.537C36.5964 77.7924 36.2515 77.9842 35.8503 78.1123C35.4576 78.2329 35.0193 78.3106 34.5355 78.3453L35.5187 79.4048L37.3666 81.4924L36.3228 82.4164ZM35.9292 76.8164C36.1838 76.5911 36.3684 76.3293 36.4829 76.0312C36.5983 75.7171 36.6423 75.3906 36.6148 75.0517C36.5882 74.6968 36.4821 74.3291 36.2966 73.9485C36.1195 73.5603 35.8619 73.1753 35.5239 72.7935C35.2234 72.454 34.9195 72.1705 34.6123 71.9431C34.305 71.7156 33.997 71.5644 33.6885 71.4894C33.3809 71.3984 33.0722 71.3917 32.7624 71.4691C32.4611 71.5391 32.1661 71.7018 31.8776 71.9572C31.6145 72.1901 31.4111 72.4988 31.2672 72.8835C31.1318 73.2606 31.0316 73.7202 30.9665 74.2621L33.8398 77.5081C34.3302 77.4978 34.752 77.4272 35.1052 77.2962C35.4509 77.1566 35.7256 76.9967 35.9292 76.8164Z" fill="white"/>
<path d="M41.0737 73.5567L35.5975 67.3703L36.4631 66.6041L37.5438 67.6454L37.582 67.6116C37.4486 67.0334 37.429 66.4983 37.5232 66.0062C37.6259 65.5067 37.8554 65.0992 38.2118 64.7837C38.4579 64.5658 38.7161 64.4129 38.9864 64.325L39.5941 65.4218C39.4622 65.478 39.3463 65.5352 39.2464 65.5933C39.1465 65.6515 39.0329 65.7369 38.9056 65.8496C38.6426 66.0824 38.4607 66.4327 38.3599 66.9002C38.2677 67.3603 38.3484 67.9473 38.6019 68.6612L42.1175 72.6328L41.0737 73.5567Z" fill="white"/>
<path d="M47.9034 67.7835C47.5216 68.1216 47.0928 68.3725 46.6172 68.5362C46.15 68.6924 45.6647 68.7512 45.1613 68.7125C44.6503 68.6653 44.1377 68.5136 43.6234 68.2575C43.11 67.9854 42.628 67.5947 42.1773 67.0856C41.7191 66.5679 41.3898 66.042 41.1895 65.508C40.9902 64.9579 40.8981 64.4264 40.9133 63.9135C40.9285 63.4006 41.0419 62.9218 41.2537 62.477C41.4739 62.0248 41.775 61.6296 42.1568 61.2916C42.5387 60.9536 42.9632 60.7064 43.4304 60.5502C43.906 60.3865 44.3993 60.3282 44.9103 60.3754C45.4213 60.4226 45.9334 60.5822 46.4467 60.8544C46.961 61.1105 47.4473 61.4974 47.9055 62.015C48.3562 62.5242 48.6812 63.0538 48.8806 63.6039C49.0809 64.138 49.1734 64.6614 49.1583 65.1744C49.1356 65.6788 49.0141 66.1571 48.7939 66.6094C48.5821 67.0541 48.2853 67.4455 47.9034 67.7835ZM47.1372 66.918C47.4003 66.6851 47.5933 66.4158 47.7163 66.1102C47.8318 65.7961 47.8758 65.4696 47.8482 65.1307C47.8217 64.7758 47.7231 64.4166 47.5526 64.0529C47.382 63.6893 47.139 63.3292 46.8235 62.9728C46.508 62.6164 46.1801 62.3315 45.8399 62.1181C45.4921 61.8962 45.1437 61.7505 44.7946 61.6811C44.4541 61.6041 44.1247 61.6081 43.8064 61.6931C43.4806 61.7696 43.1861 61.9243 42.9231 62.1572C42.66 62.3901 42.4707 62.6636 42.3552 62.9777C42.2322 63.2833 42.184 63.6136 42.2106 63.9684C42.2456 64.3158 42.3522 64.6756 42.5302 65.0477C42.7008 65.4113 42.9438 65.7714 43.2593 66.1278C43.5748 66.4842 43.9027 66.7691 44.243 66.9826C44.5832 67.196 44.9236 67.3411 45.2642 67.4181C45.6057 67.479 45.9394 67.4712 46.2652 67.3947C46.5835 67.3098 46.8742 67.1508 47.1372 66.918Z" fill="white"/>
<path d="M54.9881 61.2398L50.2669 55.9062L49.4268 56.6499L48.7282 55.8607L49.512 55.0534L48.6443 54.0732C48.081 53.4367 47.782 52.8084 47.7475 52.188C47.7215 51.5602 48.0183 50.9721 48.6378 50.4238C48.833 50.251 49.0342 50.1107 49.2415 50.0029C49.4497 49.8791 49.6523 49.783 49.8491 49.7147L50.3299 50.7195C50.0106 50.8205 49.7322 50.9761 49.4946 51.1865C48.9175 51.6973 48.982 52.3515 49.6881 53.1492L50.5558 54.1294L51.8669 52.9688L52.6218 53.8217L51.3107 54.9823L56.0319 60.3159L54.9881 61.2398Z" fill="white"/>
<path d="M61.0454 56.1505C60.6296 56.5185 60.1753 56.792 59.6827 56.9707C59.1911 57.1335 58.6893 57.1992 58.1774 57.1681C57.6664 57.1209 57.158 56.9655 56.6522 56.7018C56.1464 56.4382 55.6681 56.0518 55.2174 55.5426C54.7667 55.0335 54.4412 54.5118 54.2409 53.9778C54.0415 53.4277 53.9452 52.9 53.9519 52.3946C53.9671 51.8817 54.0763 51.4066 54.2796 50.9694C54.4753 50.5236 54.7514 50.143 55.1078 49.8275C55.4982 49.482 55.9062 49.2419 56.3319 49.1072C56.7661 48.9651 57.1977 48.9311 57.6267 49.0054C58.0642 49.0722 58.4959 49.235 58.9217 49.4938C59.3476 49.7525 59.7558 50.1026 60.1464 50.5439C60.244 50.6542 60.3375 50.7683 60.4266 50.8861C60.5168 50.9879 60.5872 51.0845 60.6378 51.1759L56.4626 54.8718C57.0909 55.4962 57.7603 55.842 58.4708 55.9094C59.1822 55.9607 59.835 55.7235 60.429 55.1977C60.726 54.9347 60.96 54.6519 61.131 54.3492C61.3029 54.0305 61.4396 53.6976 61.5411 53.3505L62.5187 53.7111C62.3974 54.1213 62.2275 54.5364 62.0093 54.9567C61.791 55.3769 61.4697 55.7749 61.0454 56.1505ZM55.785 54.132L59.0947 51.2024C58.5388 50.5744 57.9823 50.2194 57.4253 50.1373C56.8693 50.0392 56.3494 50.2042 55.8657 50.6324C55.6451 50.8277 55.4705 51.0579 55.3419 51.3231C55.2218 51.5807 55.1563 51.8658 55.1453 52.1782C55.1268 52.4822 55.1676 52.8018 55.2676 53.1371C55.3761 53.4648 55.5486 53.7965 55.785 54.132Z" fill="white"/>
<path d="M66.1043 51.6724C65.5866 52.1306 65.0186 52.361 64.4003 52.3634C63.7904 52.3584 63.2375 52.0759 62.7418 51.5158C62.1408 50.8369 61.9838 50.0525 62.2709 49.1628C62.5504 48.2645 63.2882 47.1573 64.4843 45.8412C64.3116 45.646 64.1213 45.4739 63.9136 45.3247C63.7144 45.1681 63.5043 45.0589 63.2833 44.9973C63.0622 44.9357 62.8293 44.9375 62.5844 45.0029C62.3406 45.0523 62.0913 45.1897 61.8367 45.415C61.4803 45.7305 61.2052 46.0951 61.0114 46.5088C60.8176 46.9226 60.6728 47.3232 60.5769 47.7108L59.5273 47.3458C59.6506 46.9037 59.845 46.4137 60.1106 45.8759C60.3687 45.3296 60.7481 44.8349 61.2487 44.3917C62.004 43.7231 62.7579 43.472 63.5106 43.6382C64.2556 43.796 64.97 44.261 65.6536 45.0333L69.0114 48.8266L68.1458 49.5928L67.4031 48.9334L67.365 48.9672C67.2858 49.4762 67.1554 49.9701 66.9737 50.4488C66.7844 50.919 66.4947 51.3268 66.1043 51.6724ZM65.6661 50.5618C65.9631 50.2989 66.1831 49.9831 66.326 49.6145C66.4613 49.2373 66.5573 48.7815 66.614 48.2471L65.0928 46.5286C64.6352 47.0547 64.2696 47.5222 63.9958 47.931C63.7305 48.3324 63.5438 48.6943 63.4359 49.0169C63.3364 49.332 63.3109 49.6195 63.3593 49.8794C63.4086 50.1233 63.5197 50.3428 63.6925 50.538C64.008 50.8944 64.3394 51.0551 64.6868 51.02C65.0342 50.985 65.3606 50.8322 65.6661 50.5618Z" fill="white"/>
<path d="M72.8665 45.6865C72.5356 45.9795 72.2105 46.1765 71.8912 46.2774C71.5804 46.3709 71.274 46.3924 70.972 46.3419C70.6785 46.2839 70.3893 46.1539 70.1046 45.9519C69.8198 45.7498 69.5422 45.4961 69.2718 45.1906L66.2407 41.7664L65.3242 42.5777L64.6256 41.7885L65.5367 40.8685L64.1316 39.0246L65.0099 38.2471L66.5423 39.9783L68.2099 38.5022L68.9648 39.3551L67.2973 40.8312L70.3396 44.2681C70.6776 44.65 71.0084 44.8869 71.332 44.9789C71.6565 45.0548 71.997 44.9351 72.3535 44.6196C72.4638 44.5219 72.5676 44.3998 72.6648 44.2531C72.762 44.1065 72.8428 43.9669 72.9071 43.8343L73.8094 44.4433C73.6922 44.6529 73.5506 44.8691 73.3845 45.0918C73.2344 45.3155 73.0617 45.5137 72.8665 45.6865Z" fill="white"/>
<path d="M77.0276 42.0032C76.3657 42.5891 75.7017 42.8136 75.0356 42.6767C74.3781 42.5323 73.6962 42.0612 72.9901 41.2635L69.5196 37.3429L70.5761 36.4076L73.9227 40.1882C74.441 40.7738 74.9057 41.1192 75.3168 41.2246C75.7288 41.3139 76.1385 41.1783 76.5459 40.8177C76.8683 40.5322 77.0813 40.2 77.1846 39.8209C77.2805 39.4333 77.3154 38.9256 77.2894 38.2978L73.402 33.9062L74.4458 32.9822L79.922 39.1687L79.0564 39.9349L78.1109 39.0463L78.0728 39.0801C78.0847 39.675 78.0196 40.217 77.8774 40.7061C77.7437 41.1877 77.4604 41.6201 77.0276 42.0032Z" fill="white"/>
<path d="M82.0089 37.3214L76.5327 31.1349L77.3983 30.3687L78.479 31.41L78.5172 31.3762C78.3838 30.798 78.3642 30.2629 78.4584 29.7709C78.5611 29.2713 78.7906 28.8638 79.1471 28.5483C79.3932 28.3304 79.6514 28.1776 79.9217 28.0897L80.5293 29.1865C80.3974 29.2427 80.2815 29.2998 80.1816 29.358C80.0817 29.4161 79.9682 29.5015 79.8409 29.6142C79.5778 29.8471 79.3959 30.1973 79.2952 30.6648C79.2029 31.1249 79.2836 31.7119 79.5372 32.4258L83.0527 36.3974L82.0089 37.3214Z" fill="white"/>
<path d="M88.9405 31.458C88.5247 31.8261 88.0705 32.0995 87.5778 32.2783C87.0862 32.441 86.5844 32.5068 86.0725 32.4756C85.5615 32.4285 85.0531 32.2731 84.5473 32.0094C84.0415 31.7458 83.5632 31.3594 83.1125 30.8502C82.6618 30.341 82.3363 29.8194 82.136 29.2853C81.9367 28.7353 81.8403 28.2075 81.847 27.7021C81.8622 27.1892 81.9714 26.7142 82.1747 26.2769C82.3704 25.8312 82.6465 25.4506 83.003 25.1351C83.3933 24.7896 83.8014 24.5495 84.227 24.4148C84.6612 24.2726 85.0928 24.2387 85.5219 24.313C85.9594 24.3798 86.391 24.5426 86.8169 24.8014C87.2427 25.0601 87.6509 25.4101 88.0415 25.8514C88.1392 25.9617 88.2326 26.0758 88.3217 26.1937C88.4119 26.2955 88.4823 26.3921 88.5329 26.4835L84.3577 30.1794C84.986 30.8037 85.6555 31.1496 86.3659 31.2169C87.0773 31.2683 87.7301 31.0311 88.3241 30.5052C88.6211 30.2423 88.8551 29.9595 89.0261 29.6568C89.1981 29.3381 89.3348 29.0052 89.4362 28.6581L90.4138 29.0187C90.2925 29.4288 90.1227 29.844 89.9044 30.2643C89.6861 30.6845 89.3648 31.0824 88.9405 31.458ZM83.6802 29.4396L86.9898 26.51C86.4339 25.882 85.8775 25.5269 85.3204 25.4448C84.7644 25.3468 84.2445 25.5118 83.7608 25.94C83.5402 26.1353 83.3656 26.3655 83.237 26.6307C83.117 26.8883 83.0514 27.1733 83.0404 27.4858C83.0219 27.7898 83.0627 28.1094 83.1627 28.4446C83.2712 28.7724 83.4437 29.104 83.6802 29.4396Z" fill="white"/>
<defs>
<filter id="filter0_d" x="0" y="3.81525" width="312" height="222" filterUnits="userSpaceOnUse" color-interpolation-filters="sRGB">
<feFlood flood-opacity="0" result="BackgroundImageFix"/>
<feColorMatrix in="SourceAlpha" type="matrix" values="0 0 0 0 0 0 0 0 0 0 0 0 0 0 0 0 0 0 127 0"/>
<feOffset dy="4"/>
<feGaussianBlur stdDeviation="10"/>
<feColorMatrix type="matrix" values="0 0 0 0 0 0 0 0 0 0 0 0 0 0 0 0 0 0 0.15 0"/>
<feBlend mode="normal" in2="BackgroundImageFix" result="effect1_dropShadow"/>
<feBlend mode="normal" in="SourceGraphic" in2="effect1_dropShadow" result="shape"/>
</filter>
</defs>
</svg>
